PathFileType	4	(X/Y/Z)	C:/Users/beibeiliu/ov580/test_trc\sequence.5_training_dense_left.trc
DataRate	CameraRate	NumFrames	NumMarkers	Units	OrigDataRate	OrigDataStartFrame	OrigNumFrames
120	120	13	19	mm	120	169	336
Frame#	Time	ThumbCMC			ThumbMCP			ThumbIP			ThumbTip			IndexMCP			IndexPIP			IndexTip			MiddleMCP			MiddlePIP			MiddleTip			RingMCP			RingPIP			RingTip			PinkyMCP			PinkyPIP			PinkyTip			BackHand1			BackHand2			BackHand3	
		X0	Y0	Z0	X1	Y1	Z1	X2	Y2	Z2	X3	Y3	Z3	X4	Y4	Z4	X5	Y5	Z5	X6	Y6	Z6	X7	Y7	Z7	X8	Y8	Z8	X9	Y9	Z9	X10	Y10	Z10	X11	Y11	Z11	X12	Y12	Z12	X13	Y13	Z13	X14	Y14	Z14	X15	Y15	Z15	X16	Y16	Z16	X17	Y17	Z17	X18	Y18	Z18	
168	1.4	-141.16	17.5017	-3.91636	-154.398	0.95959	-24.8979	-171.364	2.16351	-45.6975	-190.25	1.97431	-60.3218	-150.529	55.7286	-55.2332	-161.183	67.2484	-73.0027	-166.999	78.1524	-88.6127	-180.22	45.4053	-55.3297	-195.003	20.9182	-54.3719	-178.182	11.616	-23.9542	-195.508	42.064	-40.7935	-195.013	17.4208	-33.5562	-181.699	15.2057	-12.8413	-202.746	47.9327	-24.8204	-199.24	22.409	-20.126	-181.172	22.1152	-6.31327	-166.124	65.6803	-1.29169	-158.527	59.4773	22.9071	-137.561	50.6239	-0.103068	
169	1.40833	-139.353	14.6288	-0.790323	-157.552	5.39786	-26.3757	-172.499	4.20094	-45.4097	-189.843	3.17411	-56.4526	-154.182	56.418	-54.3185	-162.457	65.073	-73.4271	-170.514	73.9601	-88.8883	-184.548	47.0243	-51.5572	-193.845	16.8005	-52.8315	-181.422	9.18838	-26.0322	-195.697	44.6525	-37.834	-201.204	16.756	-30.225	-181.094	16.4393	-5.76041	-203.504	44.8999	-25.3735	-203.435	22.1364	-16.2211	-183.571	22.2191	-1.90836	-168.905	64.1793	-0.472213	-157.81	59.3762	24.8428	-142.944	53.0335	1.15788	
170	1.41667	-141.84	16.6963	-3.98796	-155.531	-1.15543	-26.3022	-170.292	-2.15861	-42.5996	-194.464	1.09268	-56.0776	-161.195	55.2045	-56.0681	-170.409	60.5731	-72.6509	-181.738	67.1406	-91.198	-189.143	42.621	-52.101	-195.596	12.3778	-51.0826	-185.212	9.57473	-22.0247	-203.116	37.2371	-37.2487	-198.946	11.6592	-27.0773	-183.773	13.3911	-7.82843	-210.181	42.6755	-21.2145	-204.318	19.8372	-17.7872	-182.429	23.2223	-0.497256	-176.523	63.1388	1.73472	-164.57	59.2255	26.1647	-146.323	52.4576	3.02645	
171	1.425	-142.218	15.1287	-1.25267	-158.305	-0.0428584	-23.4333	-174.706	-1.30195	-42.1904	-191.955	-2.38406	-52.1302	-165.797	49.7146	-57.376	-179.418	51.5641	-73.0819	-193.486	50.071	-93.7439	-190.872	38.3549	-50.9395	-199.45	11.6426	-51.1722	-184.005	4.70015	-20.4568	-201.886	34.3952	-35.8959	-203.366	9.73772	-27.9268	-182.949	12.0729	-3.68916	-212.009	38.9591	-19.369	-205.483	13.63	-14.3954	-186.461	17.7406	-0.680059	-180.846	61.246	-1.38594	-165.374	56.4966	27.9621	-146.942	47.7154	2.25521	
172	1.43333	-144.364	13.686	-0.27872	-156.465	-5.7521	-23.7714	-174.134	-5.02554	-42.3009	-193.998	-9.78267	-54.5242	-167.279	42.3747	-54.4608	-184.309	39.6018	-74.6723	-196.176	26.098	-91.331	-193.188	34.8683	-47.6917	-200.022	5.41847	-49.0358	-184.397	2.22241	-17.95	-204.687	26.9958	-36.8426	-201.629	3.62799	-23.9518	-186.92	9.37118	-2.4308	-216.509	33.2129	-17.7148	-206.097	9.50075	-11.1674	-185.413	17.3948	5.31323	-179.555	56.8361	-2.72002	-170.359	55.3875	25.0308	-153.586	48.4542	4.613	
173	1.44167	-148.151	13.7592	-0.470423	-160.94	-3.90714	-23.7126	-174.973	-10.6124	-44.5468	-194.157	-10.7758	-53.0384	-172.216	36.231	-54.9654	-188.975	23.7428	-77.5009	-202.969	6.64383	-82.7961	-194.771	29.925	-48.6748	-201.904	-0.370115	-46.3701	-184.458	-2.30478	-18.2184	-205.009	26.0847	-34.5203	-206.936	0.738421	-23.6268	-183.912	5.6712	-4.88906	-216.619	28.1418	-20.9385	-206.851	6.49293	-12.3561	-188.215	14.342	4.59887	-179.702	54.9314	-1.23018	-172.068	51.2293	21.5572	-151.957	45.3136	-0.83646	
174	1.45	-149.629	11.5678	-1.45219	-161.576	-4.56919	-24.2152	-175.261	-13.2809	-44.7611	-195.118	-11.1467	-52.2125	-170.625	31.1401	-56.6526	-191.437	16.7421	-73.9176	-202.684	-7.40908	-78.6826	-196.426	26.1182	-49.6745	-203.471	-3.54822	-44.3446	-190.107	-6.05538	-18.5927	-210.934	21.6686	-34.6133	-202.336	-2.72033	-25.2359	-186.727	4.1396	-4.40267	-219.095	24.5599	-20.7235	-208.414	3.40564	-15.098	-190.067	11.7431	1.90164	-186.57	54.4029	-2.6427	-174.884	50.8645	23.1409	-154.913	43.5568	0.872401	
175	1.45833	-149.666	10.8424	1.45971	-160.204	-8.91989	-25.7849	-176.746	-13.1374	-41.891	-196.238	-18.8624	-54.5954	-177.593	30.725	-56.031	-187.693	17.5459	-75.4532	-200.313	-7.58195	-81.9576	-199.567	23.5186	-50.5093	-206.405	-4.18276	-47.236	-187.178	-5.95189	-17.2041	-210.637	18.9507	-35.1319	-202.337	-5.19679	-25.565	-187.628	0.417674	-6.46788	-221.962	20.1953	-20.8712	-210.408	0.746553	-13.6657	-189.77	9.03318	1.34566	-186.818	49.4787	1.07046	-176.01	47.4687	22.3148	-157.709	42.466	2.06933	
176	1.46667	-152.551	10.951	-2.74797	-161.712	-9.09529	-25.4503	-176.622	-15.0557	-41.7791	-197.144	-18.7031	-53.5248	-179.093	33.0698	-55.3318	-194.664	20.4383	-76.4221	-202.641	2.06525	-86.91	-201.047	22.094	-50.4807	-204.087	-5.62495	-48.5432	-185.338	-6.6741	-18.0618	-212.935	17.1543	-34.3286	-207.552	-7.04608	-24.1836	-186.402	3.34669	-4.32634	-219.377	18.4783	-22.6027	-210.003	-2.14805	-10.039	-192.123	8.89441	3.01134	-192.384	49.3111	0.72228	-181.164	47.3857	23.5876	-160.932	43.6992	-0.757631	
177	1.475	-151.062	11.0503	-1.54383	-162.603	-8.03492	-25.9823	-175.833	-12.9459	-41.504	-200.162	-14.3537	-54.5062	-178.866	38.313	-58.1592	-192.743	32.6065	-77.0973	-203.182	16.0182	-96.0987	-201.028	24.6116	-48.7943	-205.258	-7.07115	-46.1067	-190.538	-5.79976	-19.5538	-211.74	15.9037	-37.108	-208.211	-6.87346	-25.634	-188.582	3.50308	-3.56381	-225.08	20.2487	-19.0979	-213.891	-2.78533	-11.8397	-194.597	9.33749	4.28979	-197.012	49.6342	-1.57228	-186.342	45.7115	28.1119	-165.542	45.1271	3.90697	
178	1.48333	-154.114	12.5152	-1.33628	-167.016	-1.05883	-24.9843	-177.774	-10.1291	-47.0391	-198.715	-13.7564	-57.7568	-179.16	42.6668	-52.3963	-193.742	45.3134	-73.6018	-202.598	39.6578	-99.5751	-202.011	24.2026	-53.5411	-204.85	-5.14939	-48.9276	-190.933	-5.47194	-21.6823	-214.276	18.7989	-36.516	-210.541	-7.23907	-23.6922	-190.952	2.29771	-5.40305	-227.92	16.646	-20.8298	-215.405	-1.4911	-15.8304	-195.998	8.31981	0.479433	-202.113	48.8113	1.50996	-187.031	46.7749	24.9447	-167.07	45.7636	4.35118	
179	1.49167	-157.344	14.1858	1.29817	-165.241	-0.917155	-23.1972	-180.917	-4.69404	-45.0779	-197.965	-8.40948	-56.084	-185.099	49.0118	-53.4346	-190.197	52.597	-70.1886	-204.411	56.2126	-89.0433	-204.274	29.3504	-50.7951	-209.346	0.316148	-53.6374	-196.577	-5.03219	-23.4938	-221.373	20.6511	-33.5182	-212.232	-4.14871	-28.68	-194.916	3.4132	-5.14322	-230.97	16.684	-21.0082	-215.442	-1.59555	-15.1472	-199.985	8.04459	1.36429	-204.639	49.0908	4.73072	-190.169	44.2077	28.4564	-172.524	46.146	7.79893	
180	1.5	-161.519	17.6491	-0.131664	-167.12	1.56432	-24.407	-182.503	-2.56924	-50.1689	-204.05	-4.2998	-59.7016	-188.826	51.1458	-46.9761	-198.13	58.5992	-69.0761	-202.698	66.691	-88.3156	-208.037	29.5917	-53.3229	-210.184	0.00219778	-52.8189	-196.272	-3.25643	-24.1645	-224.452	19.3571	-37.2216	-213.494	-2.20007	-32.2355	-197.659	3.90689	-6.2078	-229.855	18.8759	-23.2939	-218.686	-0.369241	-17.3835	-201.786	7.36206	0.152437	-204.267	51.3521	1.29947	-196.923	49.4111	26.2351	-178.804	46.5878	7.7453	
